<svg xmlns="http://www.w3.org/2000/svg" width="154" height="167" viewBox="0 0 154 167">
  <path fill="#FFFFFF" fill-rule="evenodd" d="M49.1212229,58.717455 C49.1212229,58.717455 113.975715,45.1466542 153.8805,107.49724 C154.490852,115.577318 152.718391,121.179857 152.718391,121.179857 C152.718391,121.179857 125.651496,106.256517 80.5636057,97.1168691 C127.051399,111.762865 150.446418,134.084642 150.446418,134.084642 C147.691047,141.602709 142.243782,150.168627 142.243782,150.168627 C142.243782,150.168627 113.171516,142.339037 90.7369456,138.176439 C108.276008,146.297045 134.819953,158.491869 134.819953,158.491869 C124.813117,167.010424 112.310676,171.960131 112.310676,171.960131 C112.310676,171.960131 76.6720042,166.974779 67.0963206,165.416674 C77.5572581,171.960131 97.6705393,176.352221 97.6705393,176.352221 C97.6705393,176.352221 72.7784495,182.069994 46.7696604,183.342455 C54.161262,179.282396 29.9884104,154.531908 27.1378245,139.605639 C27.1378245,139.605639 46.8057932,147.141771 79.614387,150.894213 C62.2213206,141.912279 23.5045237,124.42351 23.5045237,124.42351 C23.5045237,124.42351 22.0162424,113.199389 24.1519846,106.1989 C24.1519846,106.1989 74.6812815,118.240404 102.788703,124.013842 C59.7154612,105.206713 26.5523753,95.6569081 26.5523753,95.6569081 C26.5523753,95.6569081 28.1119456,89.3981191 33.8721995,79.6632558 C33.8721995,79.6632558 65.7076487,72.5841542 118.378059,90.4645253 C81.1959299,64.8590566 38.9132151,71.4855214 38.9132151,71.4855214 L49.1212229,58.717455 Z M157.0248,100.523636 C134.554858,75.5502151 122.325725,44.3511662 45.5236078,54.0858998 C45.5236078,-5.65397607 130.419907,27.3807745 130.419907,27.3807745 C130.419907,27.3807745 132.492029,20.6871603 136.994352,17 L143.693859,21.1141776 C137.265055,28.4770744 139.424348,32.8059424 139.424348,32.8059424 C139.424348,32.8059424 209.246757,66.1558348 157.0248,100.523636 Z" transform="translate(-23 -17)"/>
</svg>
