<svg xmlns="http://www.w3.org/2000/svg" width="600" height="200" viewBox="0 0 600 200">
  <g fill="#FFFFFF" fill-rule="evenodd">
    <path d="M49.1212229 58.717455C49.1212229 58.717455 113.975715 45.1466542 153.8805 107.49724 154.490852 115.577318 152.718391 121.179857 152.718391 121.179857 152.718391 121.179857 125.651496 106.256517 80.5636057 97.1168691 127.051399 111.762865 150.446418 134.084642 150.446418 134.084642 147.691047 141.602709 142.243782 150.168627 142.243782 150.168627 142.243782 150.168627 113.171516 142.339037 90.7369456 138.176439 108.276008 146.297045 134.819953 158.491869 134.819953 158.491869 124.813117 167.010424 112.310676 171.960131 112.310676 171.960131 112.310676 171.960131 76.6720042 166.974779 67.0963206 165.416674 77.5572581 171.960131 97.6705393 176.352221 97.6705393 176.352221 97.6705393 176.352221 72.7784495 182.069994 46.7696604 183.342455 54.161262 179.282396 29.9884104 154.531908 27.1378245 139.605639 27.1378245 139.605639 46.8057932 147.141771 79.614387 150.894213 62.2213206 141.912279 23.5045237 124.42351 23.5045237 124.42351 23.5045237 124.42351 22.0162424 113.199389 24.1519846 106.1989 24.1519846 106.1989 74.6812815 118.240404 102.788703 124.013842 59.7154612 105.206713 26.5523753 95.6569081 26.5523753 95.6569081 26.5523753 95.6569081 28.1119456 89.3981191 33.8721995 79.6632558 33.8721995 79.6632558 65.7076487 72.5841542 118.378059 90.4645253 81.1959299 64.8590566 38.9132151 71.4855214 38.9132151 71.4855214L49.1212229 58.717455zM157.0248 100.523636C134.554858 75.5502151 122.325725 44.3511662 45.5236078 54.0858998 45.5236078-5.65397607 130.419907 27.3807745 130.419907 27.3807745 130.419907 27.3807745 132.492029 20.6871603 136.994352 17L143.693859 21.1141776C137.265055 28.4770744 139.424348 32.8059424 139.424348 32.8059424 139.424348 32.8059424 209.246757 66.1558348 157.0248 100.523636zM225.837 146L215.33 146 256.028 51.836 265.338 51.836 305.77 146 295.13 146 284.756 121.262 236.078 121.262 225.837 146zM239.669 112.484L281.165 112.484 260.417 62.476 239.669 112.484zM363.891 97.987C362.383659 95.592988 360.189181 93.6201744 357.3075 92.0685 354.425819 90.5168256 351.30035 89.741 347.931 89.741 344.295648 89.741 341.015015 90.3838269 338.089 91.6695 335.162985 92.9551731 332.658177 94.7284887 330.5745 96.9895 328.490823 99.2505113 326.894839 101.910485 325.7865 104.9695 324.678161 108.028515 324.124 111.331316 324.124 114.878 324.124 118.424684 324.678161 121.705318 325.7865 124.72 326.894839 127.734682 328.468656 130.372489 330.508 132.6335 332.547344 134.894511 335.029985 136.667827 337.956 137.9535 340.882015 139.239173 344.162648 139.882 347.798 139.882 351.78802 139.882 355.15732 139.128341 357.906 137.621 360.65468 136.113659 362.915658 134.163012 364.689 131.769L371.472 136.823C368.811987 140.103683 365.553519 142.719324 361.6965 144.67 357.839481 146.620676 353.206694 147.596 347.798 147.596 342.743975 147.596 338.177687 146.775842 334.099 145.1355 330.020313 143.495158 326.540181 141.212015 323.6585 138.286 320.776819 135.359985 318.538008 131.90202 316.942 127.912 315.345992 123.92198 314.548 119.577357 314.548 114.878 314.548 110.178643 315.345992 105.83402 316.942 101.844 318.538008 97.85398 320.776819 94.3960146 323.6585 91.47 326.540181 88.5439854 330.020313 86.2608415 334.099 84.6205 338.177687 82.9801585 342.743975 82.16 347.798 82.16 351.965354 82.16 356.199145 83.0688242 360.4995 84.8865 364.799855 86.7041758 368.279987 89.3863156 370.94 92.933L363.891 97.987zM447.415 114.878C447.415 119.577357 446.594842 123.92198 444.9545 127.912 443.314158 131.90202 441.031015 135.359985 438.105 138.286 435.178985 141.212015 431.676687 143.495158 427.598 145.1355 423.519313 146.775842 419.041691 147.596 414.165 147.596 409.376976 147.596 404.943687 146.775842 400.865 145.1355 396.786313 143.495158 393.284015 141.212015 390.358 138.286 387.431985 135.359985 385.148842 131.90202 383.5085 127.912 381.868158 123.92198 381.048 119.577357 381.048 114.878 381.048 110.178643 381.868158 105.83402 383.5085 101.844 385.148842 97.85398 387.431985 94.3960146 390.358 91.47 393.284015 88.5439854 396.786313 86.2608415 400.865 84.6205 404.943687 82.9801585 409.376976 82.16 414.165 82.16 419.041691 82.16 423.519313 82.9801585 427.598 84.6205 431.676687 86.2608415 435.178985 88.5439854 438.105 91.47 441.031015 94.3960146 443.314158 97.85398 444.9545 101.844 446.594842 105.83402 447.415 110.178643 447.415 114.878zM437.839 114.878C437.839 111.419983 437.284839 108.161515 436.1765 105.1025 435.068161 102.043485 433.494344 99.3835113 431.455 97.1225 429.415656 94.8614887 426.933015 93.0660066 424.007 91.736 421.080985 90.4059934 417.800352 89.741 414.165 89.741 410.529648 89.741 407.271181 90.4059934 404.3895 91.736 401.507819 93.0660066 399.047344 94.8614887 397.008 97.1225 394.968656 99.3835113 393.394839 102.043485 392.2865 105.1025 391.178161 108.161515 390.624 111.419983 390.624 114.878 390.624 118.336017 391.178161 121.594485 392.2865 124.6535 393.394839 127.712515 394.968656 130.372489 397.008 132.6335 399.047344 134.894511 401.507819 136.667827 404.3895 137.9535 407.271181 139.239173 410.529648 139.882 414.165 139.882 417.800352 139.882 421.080985 139.239173 424.007 137.9535 426.933015 136.667827 429.415656 134.894511 431.455 132.6335 433.494344 130.372489 435.068161 127.712515 436.1765 124.6535 437.284839 121.594485 437.839 118.336017 437.839 114.878zM466.833 97.455C466.833 95.7703249 466.788667 93.5980133 466.7 90.938 466.611333 88.2779867 466.478334 85.8840106 466.301 83.756L474.946 83.756C475.123334 85.4406751 475.256333 87.3026565 475.345 89.342 475.433667 91.3813435 475.478 93.0659933 475.478 94.396L475.744 94.396C477.517342 90.7606485 480.177316 87.8125113 483.724 85.5515 487.270684 83.2904887 491.260645 82.16 495.694 82.16 496.846672 82.16 497.888495 82.2043329 498.8195 82.293 499.750505 82.3816671 500.703662 82.5589987 501.679 82.825L500.482 91.337C499.949997 91.1596658 499.06334 90.9823342 497.822 90.805 496.58066 90.6276658 495.33934 90.539 494.098 90.539 491.703988 90.539 489.398678 90.9823289 487.182 91.869 484.965322 92.7556711 483.036842 94.1521571 481.3965 96.0585 479.756158 97.9648429 478.426172 100.403152 477.4065 103.3735 476.386828 106.343848 475.877 109.912646 475.877 114.08L475.877 146 466.833 146 466.833 97.455zM522.826 83.756C523.003334 85.4406751 523.136333 87.3026565 523.225 89.342 523.313667 91.3813435 523.358 93.0659933 523.358 94.396L523.624 94.396C525.397342 90.7606485 528.27898 87.8125113 532.269 85.5515 536.25902 83.2904887 540.470645 82.16 544.904 82.16 552.795373 82.16 558.713814 84.5096432 562.6595 89.209 566.605186 93.9083568 568.578 100.114961 568.578 107.829L568.578 146 559.534 146 559.534 111.553C559.534 108.272317 559.268003 105.302013 558.736 102.642 558.203997 99.9819867 557.295173 97.6988429 556.0095 95.7925 554.723827 93.8861571 552.994844 92.4010053 550.8225 91.337 548.650156 90.2729947 545.923683 89.741 542.643 89.741 540.248988 89.741 537.921511 90.2286618 535.6605 91.204 533.399489 92.1793382 531.382342 93.66449 529.609 95.6595 527.835658 97.65451 526.417005 100.181485 525.353 103.2405 524.288995 106.299515 523.757 109.912646 523.757 114.08L523.757 146 514.713 146 514.713 97.455C514.713 95.7703249 514.668667 93.5980133 514.58 90.938 514.491333 88.2779867 514.358334 85.8840106 514.181 83.756L522.826 83.756z"/>
  </g>
</svg>
