<svg xmlns="http://www.w3.org/2000/svg" width="600" height="200" viewBox="0 0 600 200" xmlns:xlink="http://www.w3.org/1999/xlink">
  <defs>
    <path id="a" d="M23.8835349,125.505321 C39.6159181,120.656927 133.167396,130.187471 130.666123,49.7617335 C107.215218,17.9599856 81.1537209,-4.84580938 26.1918943,0.953064443 C-36.9842488,72.034511 35.491586,114.455201 23.8835349,125.505321 Z"/>
  </defs>
  <g fill="none" fill-rule="evenodd">
    <g transform="translate(23 16)">
      <g transform="translate(0 41.31)">
        <mask id="b" fill="white">
          <use xlink:href="#a"/>
        </mask>
        <path stroke="#FFFFFF" stroke-width="16.2" d="M7.12773245,7.25134615 C87.6907412,-7.07509816 136.419606,57.5984748 136.419606,57.5984748 C136.419606,57.5984748 59.4370874,19.1071712 7.12773245,30.5821747 C7.12773245,30.5821747 114.551938,64.2530637 122.118227,84.2811626 L-4.40298177,55.3072509 L107.332378,107.854332 C107.332378,107.854332 4.20507716,97.4179329 -8.00959539,84.2811626 C-8.00959539,84.2811626 50.0144531,127.746751 80.2859423,127.746751 L0.31506414,116.120678" mask="url(#b)"/>
      </g>
      <path fill="#FFFFFF" d="M134.09303,84.0625283 C186.314988,49.6947275 116.492578,16.3448351 116.492578,16.3448351 C116.492578,16.3448351 114.333285,12.015967 120.762089,4.65307027 L114.062582,0.538892663 C109.560259,4.22605299 107.488137,10.9196671 107.488137,10.9196671 C107.488137,10.9196671 22.591838,-22.1150834 22.591838,37.6247924 C99.3939556,27.8900589 111.623088,59.0891078 134.09303,84.0625283 Z"/>
    </g>
    <path fill="#FFFFFF" d="M225.837,146 L215.33,146 L256.028,51.836 L265.338,51.836 L305.77,146 L295.13,146 L284.756,121.262 L236.078,121.262 L225.837,146 Z M239.669,112.484 L281.165,112.484 L260.417,62.476 L239.669,112.484 Z M363.891,97.987 C362.383659,95.592988 360.189181,93.6201744 357.3075,92.0685 C354.425819,90.5168256 351.30035,89.741 347.931,89.741 C344.295648,89.741 341.015015,90.3838269 338.089,91.6695 C335.162985,92.9551731 332.658177,94.7284887 330.5745,96.9895 C328.490823,99.2505113 326.894839,101.910485 325.7865,104.9695 C324.678161,108.028515 324.124,111.331316 324.124,114.878 C324.124,118.424684 324.678161,121.705318 325.7865,124.72 C326.894839,127.734682 328.468656,130.372489 330.508,132.6335 C332.547344,134.894511 335.029985,136.667827 337.956,137.9535 C340.882015,139.239173 344.162648,139.882 347.798,139.882 C351.78802,139.882 355.15732,139.128341 357.906,137.621 C360.65468,136.113659 362.915658,134.163012 364.689,131.769 L371.472,136.823 C368.811987,140.103683 365.553519,142.719324 361.6965,144.67 C357.839481,146.620676 353.206694,147.596 347.798,147.596 C342.743975,147.596 338.177687,146.775842 334.099,145.1355 C330.020313,143.495158 326.540181,141.212015 323.6585,138.286 C320.776819,135.359985 318.538008,131.90202 316.942,127.912 C315.345992,123.92198 314.548,119.577357 314.548,114.878 C314.548,110.178643 315.345992,105.83402 316.942,101.844 C318.538008,97.85398 320.776819,94.3960146 323.6585,91.47 C326.540181,88.5439854 330.020313,86.2608415 334.099,84.6205 C338.177687,82.9801585 342.743975,82.16 347.798,82.16 C351.965354,82.16 356.199145,83.0688242 360.4995,84.8865 C364.799855,86.7041758 368.279987,89.3863156 370.94,92.933 L363.891,97.987 Z M447.415,114.878 C447.415,119.577357 446.594842,123.92198 444.9545,127.912 C443.314158,131.90202 441.031015,135.359985 438.105,138.286 C435.178985,141.212015 431.676687,143.495158 427.598,145.1355 C423.519313,146.775842 419.041691,147.596 414.165,147.596 C409.376976,147.596 404.943687,146.775842 400.865,145.1355 C396.786313,143.495158 393.284015,141.212015 390.358,138.286 C387.431985,135.359985 385.148842,131.90202 383.5085,127.912 C381.868158,123.92198 381.048,119.577357 381.048,114.878 C381.048,110.178643 381.868158,105.83402 383.5085,101.844 C385.148842,97.85398 387.431985,94.3960146 390.358,91.47 C393.284015,88.5439854 396.786313,86.2608415 400.865,84.6205 C404.943687,82.9801585 409.376976,82.16 414.165,82.16 C419.041691,82.16 423.519313,82.9801585 427.598,84.6205 C431.676687,86.2608415 435.178985,88.5439854 438.105,91.47 C441.031015,94.3960146 443.314158,97.85398 444.9545,101.844 C446.594842,105.83402 447.415,110.178643 447.415,114.878 Z M437.839,114.878 C437.839,111.419983 437.284839,108.161515 436.1765,105.1025 C435.068161,102.043485 433.494344,99.3835113 431.455,97.1225 C429.415656,94.8614887 426.933015,93.0660066 424.007,91.736 C421.080985,90.4059934 417.800352,89.741 414.165,89.741 C410.529648,89.741 407.271181,90.4059934 404.3895,91.736 C401.507819,93.0660066 399.047344,94.8614887 397.008,97.1225 C394.968656,99.3835113 393.394839,102.043485 392.2865,105.1025 C391.178161,108.161515 390.624,111.419983 390.624,114.878 C390.624,118.336017 391.178161,121.594485 392.2865,124.6535 C393.394839,127.712515 394.968656,130.372489 397.008,132.6335 C399.047344,134.894511 401.507819,136.667827 404.3895,137.9535 C407.271181,139.239173 410.529648,139.882 414.165,139.882 C417.800352,139.882 421.080985,139.239173 424.007,137.9535 C426.933015,136.667827 429.415656,134.894511 431.455,132.6335 C433.494344,130.372489 435.068161,127.712515 436.1765,124.6535 C437.284839,121.594485 437.839,118.336017 437.839,114.878 Z M466.833,97.455 C466.833,95.7703249 466.788667,93.5980133 466.7,90.938 C466.611333,88.2779867 466.478334,85.8840106 466.301,83.756 L474.946,83.756 C475.123334,85.4406751 475.256333,87.3026565 475.345,89.342 C475.433667,91.3813435 475.478,93.0659933 475.478,94.396 L475.744,94.396 C477.517342,90.7606485 480.177316,87.8125113 483.724,85.5515 C487.270684,83.2904887 491.260645,82.16 495.694,82.16 C496.846672,82.16 497.888495,82.2043329 498.8195,82.293 C499.750505,82.3816671 500.703662,82.5589987 501.679,82.825 L500.482,91.337 C499.949997,91.1596658 499.06334,90.9823342 497.822,90.805 C496.58066,90.6276658 495.33934,90.539 494.098,90.539 C491.703988,90.539 489.398678,90.9823289 487.182,91.869 C484.965322,92.7556711 483.036842,94.1521571 481.3965,96.0585 C479.756158,97.9648429 478.426172,100.403152 477.4065,103.3735 C476.386828,106.343848 475.877,109.912646 475.877,114.08 L475.877,146 L466.833,146 L466.833,97.455 Z M522.826,83.756 C523.003334,85.4406751 523.136333,87.3026565 523.225,89.342 C523.313667,91.3813435 523.358,93.0659933 523.358,94.396 L523.624,94.396 C525.397342,90.7606485 528.27898,87.8125113 532.269,85.5515 C536.25902,83.2904887 540.470645,82.16 544.904,82.16 C552.795373,82.16 558.713814,84.5096432 562.6595,89.209 C566.605186,93.9083568 568.578,100.114961 568.578,107.829 L568.578,146 L559.534,146 L559.534,111.553 C559.534,108.272317 559.268003,105.302013 558.736,102.642 C558.203997,99.9819867 557.295173,97.6988429 556.0095,95.7925 C554.723827,93.8861571 552.994844,92.4010053 550.8225,91.337 C548.650156,90.2729947 545.923683,89.741 542.643,89.741 C540.248988,89.741 537.921511,90.2286618 535.6605,91.204 C533.399489,92.1793382 531.382342,93.66449 529.609,95.6595 C527.835658,97.65451 526.417005,100.181485 525.353,103.2405 C524.288995,106.299515 523.757,109.912646 523.757,114.08 L523.757,146 L514.713,146 L514.713,97.455 C514.713,95.7703249 514.668667,93.5980133 514.58,90.938 C514.491333,88.2779867 514.358334,85.8840106 514.181,83.756 L522.826,83.756 Z"/>
  </g>
</svg>
