<svg xmlns="http://www.w3.org/2000/svg" width="200" height="200" viewBox="0 0 200 200" xmlns:xlink="http://www.w3.org/1999/xlink">
  <defs>
    <path id="a" d="M23.8835349,125.505321 C39.6159181,120.656927 133.167396,130.187471 130.666123,49.7617335 C107.215218,17.9599856 81.1537209,-4.84580938 26.1918943,0.953064443 C-36.9842488,72.034511 35.491586,114.455201 23.8835349,125.505321 Z"/>
  </defs>
  <g fill="none" fill-rule="evenodd" transform="translate(23 16)">
    <g transform="translate(0 41.31)">
      <mask id="b" fill="white">
        <use xlink:href="#a"/>
      </mask>
      <path stroke="#FFFFFF" stroke-width="16.2" d="M7.12773245,7.25134615 C87.6907412,-7.07509816 136.419606,57.5984748 136.419606,57.5984748 C136.419606,57.5984748 59.4370874,19.1071712 7.12773245,30.5821747 C7.12773245,30.5821747 114.551938,64.2530637 122.118227,84.2811626 L-4.40298177,55.3072509 L107.332378,107.854332 C107.332378,107.854332 4.20507716,97.4179329 -8.00959539,84.2811626 C-8.00959539,84.2811626 50.0144531,127.746751 80.2859423,127.746751 L0.31506414,116.120678" mask="url(#b)"/>
    </g>
    <path fill="#FFFFFF" d="M134.09303,84.0625283 C186.314988,49.6947275 116.492578,16.3448351 116.492578,16.3448351 C116.492578,16.3448351 114.333285,12.015967 120.762089,4.65307027 L114.062582,0.538892663 C109.560259,4.22605299 107.488137,10.9196671 107.488137,10.9196671 C107.488137,10.9196671 22.591838,-22.1150834 22.591838,37.6247924 C99.3939556,27.8900589 111.623088,59.0891078 134.09303,84.0625283 Z"/>
  </g>
</svg>
